<?xml version="1.0" encoding="UTF-8"?>
<svg version="1.1" xmlns="http://www.w3.org/2000/svg" width="200" height="200">
<path d="M0 0 C66 0 132 0 200 0 C200 66 200 132 200 200 C134 200 68 200 0 200 C0 134 0 68 0 0 Z " fill="#F7F7F8" transform="translate(0,0)"/>
<path d="M0 0 C66 0 132 0 200 0 C200 9.9 200 19.8 200 30 C134 30 68 30 0 30 C0 20.1 0 10.2 0 0 Z " fill="#FEFEFE" transform="translate(0,170)"/>
<path d="M0 0 C1.67542976 0.28604898 3.34385343 0.61781233 5 1 C5 4 5 4 4.625 6.875 C4.70971594 10.26112722 4.70971594 10.26112722 7.6875 12.75 C10.29849506 14.67878732 12.89698194 15.99608239 16 17 C16.33 16.34 16.66 15.68 17 15 C17.495 16.98 17.495 16.98 18 19 C14.93109813 20.53445094 12.29905734 19.54984289 9 19 C9.11517421 21.35500948 9.24187978 23.70849073 9.375 26.0625 C9.47941406 28.02896484 9.47941406 28.02896484 9.5859375 30.03515625 C9.99040089 33.90808403 10.91030536 37.27394736 12 41 C12.1953125 43.65234375 12.1953125 43.65234375 12.125 45.9375 C12.10695312 46.70964844 12.08890625 47.48179688 12.0703125 48.27734375 C12.04710937 48.84582031 12.02390625 49.41429687 12 50 C13.32 50 14.64 50 16 50 C16 40.76 16 31.52 16 22 C26.74793894 23.07479389 34.20710898 24.96574258 41.52734375 33.08203125 C47.96915991 41.4717706 47.44677128 49.88559474 47 60 C43.29369058 62.36171763 40.07868418 62.24176423 35.75292969 62.22705078 C35.03058136 62.22734283 34.30823303 62.22763489 33.56399536 62.22793579 C31.18316517 62.22654562 28.80265033 62.21099934 26.421875 62.1953125 C24.76849539 62.19158125 23.11511357 62.18873481 21.46173096 62.18673706 C17.11500926 62.17910938 12.76842171 62.15946833 8.42175293 62.1373291 C3.98431208 62.11685204 -0.4531505 62.10773136 -4.890625 62.09765625 C-13.59381149 62.07622161 -22.29688904 62.04209612 -31 62 C-27.88588999 58.73119338 -25.09806465 56.91824303 -21 55 C-20.01 54.34 -19.02 53.68 -18 53 C-15.3125 53.375 -15.3125 53.375 -13 54 C-12.690625 53.360625 -12.38125 52.72125 -12.0625 52.0625 C-11 50 -11 50 -10 49 C-7.32941149 48.85884839 -4.67567762 48.95752893 -2 49 C-2.0721875 48.04738281 -2.144375 47.09476563 -2.21875 46.11328125 C-2.3115625 44.85902344 -2.404375 43.60476562 -2.5 42.3125 C-2.5928125 41.07113281 -2.685625 39.82976562 -2.78125 38.55078125 C-3 35 -3 35 -2.78125 32.23046875 C-2.8534375 31.49441406 -2.925625 30.75835937 -3 30 C-3.65226562 29.51144531 -4.30453125 29.02289063 -4.9765625 28.51953125 C-7 27 -7 27 -7.4609375 24.51171875 C-7.30320764 19.32814203 -7.09292092 14.83987963 -5 10 C-3.35 9.67 -1.7 9.34 0 9 C-0.185625 7.700625 -0.37125 6.40125 -0.5625 5.0625 C-0.87890625 2.84765625 -0.87890625 2.84765625 -1 1 C-0.67 0.67 -0.34 0.34 0 0 Z " fill="#FDF14C" transform="translate(94,53)"/>
<path d="M0 0 C1.4540625 0.0309375 1.4540625 0.0309375 2.9375 0.0625 C2.9375 0.7225 2.9375 1.3825 2.9375 2.0625 C3.55625 2.145 4.175 2.2275 4.8125 2.3125 C6.9375 3.0625 6.9375 3.0625 8.1875 5.125 C8.435 5.764375 8.6825 6.40375 8.9375 7.0625 C9.2675 5.7425 9.5975 4.4225 9.9375 3.0625 C12.2475 3.0625 14.5575 3.0625 16.9375 3.0625 C16.9375 4.3825 16.9375 5.7025 16.9375 7.0625 C18.05125 6.7840625 18.05125 6.7840625 19.1875 6.5 C21.88740963 6.07046892 23.38381077 6.21127026 25.9375 7.0625 C25.9375 6.0725 25.9375 5.0825 25.9375 4.0625 C28.3125 3.9375 28.3125 3.9375 30.9375 4.0625 C31.5975 4.7225 32.2575 5.3825 32.9375 6.0625 C35.13174129 6.59694739 35.13174129 6.59694739 37.625 6.9375 C42.49178837 7.81338064 45.8133633 9.37284563 49.9375 12.0625 C49.9375 12.3925 49.9375 12.7225 49.9375 13.0625 C25.5175 13.0625 1.0975 13.0625 -24.0625 13.0625 C-20.53120238 9.53120238 -18.41775107 8.10112816 -14.0625 6.0625 C-13.0725 5.4025 -12.0825 4.7425 -11.0625 4.0625 C-8.375 4.4375 -8.375 4.4375 -6.0625 5.0625 C-5.753125 4.423125 -5.44375 3.78375 -5.125 3.125 C-3.5525 0.0725 -3.5525 0.0725 0 0 Z " fill="#1F1A5C" transform="translate(87.0625,101.9375)"/>
<path d="M0 0 C1.67542976 0.28604898 3.34385343 0.61781233 5 1 C5 4 5 4 4.625 6.875 C4.70971594 10.26112722 4.70971594 10.26112722 7.6875 12.75 C10.29849506 14.67878732 12.89698194 15.99608239 16 17 C16.33 16.34 16.66 15.68 17 15 C17.33 16.32 17.66 17.64 18 19 C14.93109813 20.53445094 12.29905734 19.54984289 9 19 C9.1409349 21.43787385 9.28754542 23.87517853 9.4375 26.3125 C9.47681641 27.00279297 9.51613281 27.69308594 9.55664062 28.40429688 C9.74927415 31.47161535 10.02322717 34.06968152 11 37 C11.06937062 39.22818441 11.08457084 41.45834524 11.0625 43.6875 C11.05347656 44.86699219 11.04445313 46.04648438 11.03515625 47.26171875 C11.02355469 48.16535156 11.01195313 49.06898437 11 50 C7.96912484 46.56095541 6.99101482 43.13895174 5.8125 38.75 C5.46832031 37.48671875 5.12414062 36.2234375 4.76953125 34.921875 C4.51558594 33.95765625 4.26164062 32.9934375 4 32 C1.82337046 34.17662954 1.9428121 38.55238727 1.4375 41.5625 C1.29892578 42.36880859 1.16035156 43.17511719 1.01757812 44.00585938 C0.67482237 46.00329811 0.33695612 48.00157472 0 50 C-0.33 50 -0.66 50 -1 50 C-1 47.03 -1 44.06 -1 41 C-1.66 41 -2.32 41 -3 41 C-2.93039063 39.86111328 -2.93039063 39.86111328 -2.859375 38.69921875 C-2.82328125 37.70535156 -2.7871875 36.71148437 -2.75 35.6875 C-2.68039063 34.20830078 -2.68039063 34.20830078 -2.609375 32.69921875 C-2.69878619 29.86244267 -2.69878619 29.86244267 -4.9921875 28.4765625 C-5.65476562 27.98929688 -6.31734375 27.50203125 -7 27 C-8.06124672 21.27106641 -7.30634149 15.33341469 -5 10 C-3.35 9.67 -1.7 9.34 0 9 C-0.185625 7.700625 -0.37125 6.40125 -0.5625 5.0625 C-0.87890625 2.84765625 -0.87890625 2.84765625 -1 1 C-0.67 0.67 -0.34 0.34 0 0 Z " fill="#052261" transform="translate(94,53)"/>
<path d="M0 0 C0.66 0 1.32 0 2 0 C2 9.57 2 19.14 2 29 C3.65 29.33 5.3 29.66 7 30 C5.68 30.33 4.36 30.66 3 31 C3.33 32.32 3.66 33.64 4 35 C2.01432292 34.70703125 0.02864583 34.4140625 -1.95703125 34.12109375 C-4.2025342 33.86095201 -4.2025342 33.86095201 -7 35 C-6.67 33.35 -6.34 31.7 -6 30 C-8.31 30 -10.62 30 -13 30 C-13 31.65 -13 33.3 -13 35 C-13.99 34.34 -14.98 33.68 -16 33 C-16 32.01 -16 31.02 -16 30 C-17.32 29.67 -18.64 29.34 -20 29 C-20 28.34 -20 27.68 -20 27 C-19.34 27 -18.68 27 -18 27 C-18 24.36 -18 21.72 -18 19 C-17.34 20.32 -16.68 21.64 -16 23 C-15.81824219 21.73542969 -15.81824219 21.73542969 -15.6328125 20.4453125 C-15.38144531 18.80175781 -15.38144531 18.80175781 -15.125 17.125 C-14.96257812 16.03445312 -14.80015625 14.94390625 -14.6328125 13.8203125 C-14 11 -14 11 -12 9 C-9.67669016 14.60526694 -7.53254356 20.12524968 -6 26 C-5.67 23.69 -5.34 21.38 -5 19 C-4.67 19 -4.34 19 -4 19 C-4 21.97 -4 24.94 -4 28 C-2.68 28 -1.36 28 0 28 C0 18.76 0 9.52 0 0 Z " fill="#746845" transform="translate(110,75)"/>
<path d="M0 0 C1.4540625 0.0309375 1.4540625 0.0309375 2.9375 0.0625 C2.9375 0.7225 2.9375 1.3825 2.9375 2.0625 C3.865625 2.18625 3.865625 2.18625 4.8125 2.3125 C6.9375 3.0625 6.9375 3.0625 8.1875 5.125 C8.435 5.764375 8.6825 6.40375 8.9375 7.0625 C9.2675 5.7425 9.5975 4.4225 9.9375 3.0625 C12.2475 3.0625 14.5575 3.0625 16.9375 3.0625 C16.9375 4.0525 16.9375 5.0425 16.9375 6.0625 C16.2775 6.0625 15.6175 6.0625 14.9375 6.0625 C14.9375 7.0525 14.9375 8.0425 14.9375 9.0625 C18.2375 9.0625 21.5375 9.0625 24.9375 9.0625 C24.9375 9.7225 24.9375 10.3825 24.9375 11.0625 C25.9275 11.3925 26.9175 11.7225 27.9375 12.0625 C14.7375 12.0625 1.5375 12.0625 -12.0625 12.0625 C-11.4025 11.0725 -10.7425 10.0825 -10.0625 9.0625 C-6.1025 9.3925 -2.1425 9.7225 1.9375 10.0625 C1.9375 9.4025 1.9375 8.7425 1.9375 8.0625 C1.339375 7.93875 0.74125 7.815 0.125 7.6875 C-2.0625 7.0625 -2.0625 7.0625 -5.0625 5.0625 C-3.9375 0.08035714 -3.9375 0.08035714 0 0 Z " fill="#0D205E" transform="translate(87.0625,101.9375)"/>
<path d="M0 0 C0.66 0 1.32 0 2 0 C1.67 7.26 1.34 14.52 1 22 C1.66 22 2.32 22 3 22 C3 23.32 3 24.64 3 26 C4.98 25.67 6.96 25.34 9 25 C8.67 24.34 8.34 23.68 8 23 C8.66 23 9.32 23 10 23 C10 22.01 10 21.02 10 20 C9.34 20 8.68 20 8 20 C8.33 18.35 8.66 16.7 9 15 C11.25 15.125 11.25 15.125 14 16 C18 20.97297297 18 20.97297297 18 25 C17.34 25 16.68 25 16 25 C16 26.98 16 28.96 16 31 C18.31 31.33 20.62 31.66 23 32 C23.33 33.98 23.66 35.96 24 38 C20 36 20 36 18.25 34.9375 C15.99807809 33.99919921 14.34683025 33.78273128 11.9375 33.5625 C7.91675462 32.9881078 7.41512175 32.87514493 5 30 C2.525 29.01 2.525 29.01 0 28 C0 18.76 0 9.52 0 0 Z " fill="#F8F05D" transform="translate(112,76)"/>
<path d="M0 0 C1.67542976 0.28604898 3.34385343 0.61781233 5 1 C5 4 5 4 4.625 6.875 C4.70971594 10.26112722 4.70971594 10.26112722 7.6875 12.75 C10.29849506 14.67878732 12.89698194 15.99608239 16 17 C16.33 16.34 16.66 15.68 17 15 C17.33 16.32 17.66 17.64 18 19 C14.93109813 20.53445094 12.29905734 19.54984289 9 19 C9.1409349 21.43787385 9.28754542 23.87517853 9.4375 26.3125 C9.47681641 27.00279297 9.51613281 27.69308594 9.55664062 28.40429688 C9.74927415 31.47161535 10.02322717 34.06968152 11 37 C11.06937062 39.22818441 11.08457084 41.45834524 11.0625 43.6875 C11.05347656 44.86699219 11.04445313 46.04648438 11.03515625 47.26171875 C11.02355469 48.16535156 11.01195313 49.06898437 11 50 C6.89261896 44.92617636 4.35947035 38.61880638 5 32 C5.66 32 6.32 32 7 32 C6.649375 31.030625 6.29875 30.06125 5.9375 29.0625 C4.78915612 25.15494097 5.15818566 21.89572767 5.80859375 17.91796875 C6.18067513 15.91649819 6.18067513 15.91649819 5 14 C4.01 13.34 3.02 12.68 2 12 C2 11.01 2 10.02 2 9 C1.505 8.54625 1.01 8.0925 0.5 7.625 C-1 6 -1 6 -1.25 3.375 C-1 1 -1 1 0 0 Z " fill="#42436B" transform="translate(94,53)"/>
<path d="M0 0 C6.91527798 -0.909905 12.71007412 2.48417433 18.05859375 6.57421875 C22.93391162 11.07209266 26.61201941 16.19381582 27.15869141 22.96582031 C27.33081577 27.65224918 27.20687188 32.31665045 27 37 C24.525 37.495 24.525 37.495 22 38 C21.96261719 37.02160156 21.92523438 36.04320312 21.88671875 35.03515625 C21.24287385 22.19613138 19.69821804 14.40699117 10.125 5.25 C6.62166918 2.72760181 4.16318066 1.91589974 0 1 C0 0.67 0 0.34 0 0 Z " fill="#F6C728" transform="translate(114,76)"/>
<path d="M0 0 C2.64 0 5.28 0 8 0 C8 8.91 8 17.82 8 27 C6.68 27 5.36 27 4 27 C3.52584596 23.91799874 3.05177058 20.83598571 2.578125 17.75390625 C2.19427532 15.26147692 1.80887135 12.76928644 1.421875 10.27734375 C1.24140625 9.11332031 1.0609375 7.94929688 0.875 6.75 C0.70742187 5.67234375 0.53984375 4.5946875 0.3671875 3.484375 C0 1 0 1 0 0 Z " fill="#F5E865" transform="translate(102,76)"/>
<path d="M0 0 C0.99 0 1.98 0 3 0 C3 0.66 3 1.32 3 2 C4.65 2 6.3 2 8 2 C8.68707555 4.49064888 9 6.37886292 9 9 C10.43990623 11.17032476 10.43990623 11.17032476 12 13 C9.53199953 11.84826645 7.95216435 10.95216435 6 9 C5.67 9.66 5.34 10.32 5 11 C1.37 11 -2.26 11 -6 11 C-6 8.03 -6 5.06 -6 2 C-4.02 2 -2.04 2 0 2 C0 1.34 0 0.68 0 0 Z " fill="#F7EFF3" transform="translate(121,125)"/>
<path d="M0 0 C0.804375 0.495 0.804375 0.495 1.625 1 C5.25926697 2.53021767 8.1452525 1.64245792 12 1 C12.99 2.65 13.98 4.3 15 6 C18.0745356 5.2236068 18.0745356 5.2236068 20 3 C20.66 6.3 21.32 9.6 22 13 C19 10 19 10 18 8 C17.01 8.66 16.02 9.32 15 10 C14.01 9.34 13.02 8.68 12 8 C11.67 8.99 11.34 9.98 11 11 C10.67 9.68 10.34 8.36 10 7 C9.67 8.32 9.34 9.64 9 11 C8.01 11 7.02 11 6 11 C5.67 8.69 5.34 6.38 5 4 C4.01 4 3.02 4 2 4 C3.32 6.97 4.64 9.94 6 13 C1.48325359 10.74162679 1.48325359 10.74162679 -0.25 7 C-0.58515625 6.29875 -0.9203125 5.5975 -1.265625 4.875 C-2 3 -2 3 -2 1 C-1.34 0.67 -0.68 0.34 0 0 Z " fill="#B9A5B0" transform="translate(53,125)"/>
<path d="M0 0 C1.32 0.33 2.64 0.66 4 1 C3.67 1.99 3.34 2.98 3 4 C3.99 4.33 4.98 4.66 6 5 C5.01 5 4.02 5 3 5 C3 5.99 3 6.98 3 8 C4.32 8.33 5.64 8.66 7 9 C6.39671875 9.06058594 5.7934375 9.12117187 5.171875 9.18359375 C4.37265625 9.26738281 3.5734375 9.35117188 2.75 9.4375 C1.96109375 9.51871094 1.1721875 9.59992188 0.359375 9.68359375 C-1.9749636 9.94508765 -1.9749636 9.94508765 -4.09375 10.5625 C-6.86759141 11.19911934 -9.24548016 10.56342451 -12 10 C-12 8.68 -12 7.36 -12 6 C-12.99 5.34 -13.98 4.68 -15 4 C-14.67 3.01 -14.34 2.02 -14 1 C-14 1.66 -14 2.32 -14 3 C-12.783125 2.566875 -11.56625 2.13375 -10.3125 1.6875 C-8.11328125 1.11328125 -8.11328125 1.11328125 -6 1 C-3 3.375 -3 3.375 -1 6 C-0.67 4.02 -0.34 2.04 0 0 Z " fill="#CCB9C1" transform="translate(148,127)"/>
<path d="M0 0 C0.33 0.66 0.66 1.32 1 2 C3.30532837 3.30635274 5.47571223 4.15857074 8 5 C8 5.66 8 6.32 8 7 C7.15695313 6.96519531 6.31390625 6.93039063 5.4453125 6.89453125 C3.80175781 6.85392578 3.80175781 6.85392578 2.125 6.8125 C1.03445312 6.77769531 -0.05609375 6.74289063 -1.1796875 6.70703125 C-2.57574219 6.85205078 -2.57574219 6.85205078 -4 7 C-4.99 8.485 -4.99 8.485 -6 10 C-8.8203125 10.29296875 -8.8203125 10.29296875 -12.125 10.1875 C-13.76855469 10.14689453 -13.76855469 10.14689453 -15.4453125 10.10546875 C-16.28835937 10.07066406 -17.13140625 10.03585938 -18 10 C-14.88588999 6.73119338 -12.09806465 4.91824303 -8 3 C-7.01 2.34 -6.02 1.68 -5 1 C-2.3125 1.375 -2.3125 1.375 0 2 C0 1.34 0 0.68 0 0 Z " fill="#142552" transform="translate(81,105)"/>
<path d="M0 0 C2 1 2 1 3.0703125 3.984375 C3.41835937 5.22703125 3.76640625 6.4696875 4.125 7.75 C4.47820312 8.98234375 4.83140625 10.2146875 5.1953125 11.484375 C5.88518113 14.49836415 6.17547916 16.934964 6 20 C3.66705225 20.04241723 1.33297433 20.04092937 -1 20 C-2 19 -2 19 -2.1875 15.0625 C-2.14590022 9.88748756 -1.17470861 5.02397699 0 0 Z " fill="#E8E574" transform="translate(97,84)"/>
<path d="M0 0 C0.33 0 0.66 0 1 0 C1 6.27 1 12.54 1 19 C-5 19 -5 19 -7 18 C-8.03475787 11.34798515 -5.26768812 7.62200459 -1.62890625 2.16015625 C-1.09136719 1.44730469 -0.55382812 0.73445313 0 0 Z " fill="#FBF25D" transform="translate(91,83)"/>
<path d="M0 0 C0.33 0 0.66 0 1 0 C1 1.98 1 3.96 1 6 C1.66 6 2.32 6 3 6 C4.6039348 14.75003718 5.26197285 23.10747704 5 32 C0.89261896 26.92617636 -1.64052965 20.61880638 -1 14 C-0.34 14 0.32 14 1 14 C0.649375 12.989375 0.29875 11.97875 -0.0625 10.9375 C-1.1892448 7.07662622 -0.80531717 3.94605414 0 0 Z " fill="#262846" transform="translate(100,71)"/>
<path d="M0 0 C6.59229145 -0.7013076 10.49376557 1.50397814 16 5 C16 5.33 16 5.66 16 6 C-4.46 6 -24.92 6 -46 6 C-46 5.67 -46 5.34 -46 5 C-19.27 4.505 -19.27 4.505 8 4 C8 3.34 8 2.68 8 2 C6.02 2.33 4.04 2.66 2 3 C1.34 2.01 0.68 1.02 0 0 Z " fill="#0E2249" transform="translate(121,109)"/>
<path d="M0 0 C6.22118042 -0.81857637 10.87333864 1.77660154 16 5 C20.66752196 8.68263201 23.69208821 12.04173517 25 18 C23 18 23 18 21.6875 16.8125 C21.130625 16.214375 20.57375 15.61625 20 15 C11.36768084 5.71077357 11.36768084 5.71077357 0 1 C0 0.67 0 0.34 0 0 Z " fill="#F2C92B" transform="translate(114,76)"/>
<path d="M0 0 C0.99 0 1.98 0 3 0 C3 0.66 3 1.32 3 2 C4.98 2 6.96 2 9 2 C8.01 2.33 7.02 2.66 6 3 C5.67 3.99 5.34 4.98 5 6 C5.99 6.66 6.98 7.32 8 8 C7.67 9.65 7.34 11.3 7 13 C5.68 13.33 4.36 13.66 3 14 C2.566875 13.1028125 2.566875 13.1028125 2.125 12.1875 C0.95257974 9.80672208 0.95257974 9.80672208 -1 7 C-0.625 4.4375 -0.625 4.4375 0 2 C0 1.34 0 0.68 0 0 Z " fill="#F3E0E7" transform="translate(129,125)"/>
<path d="M0 0 C3.3 0.33 6.6 0.66 10 1 C10 1.66 10 2.32 10 3 C14.62 3 19.24 3 24 3 C23.01 3.495 23.01 3.495 22 4 C22 4.99 22 5.98 22 7 C21.0821875 6.855625 20.164375 6.71125 19.21875 6.5625 C12.74724667 5.58361714 6.54609151 4.73815634 0 5 C0 3.35 0 1.7 0 0 Z " fill="#F4F1DD" transform="translate(102,71)"/>
<path d="M0 0 C0.33 0.66 0.66 1.32 1 2 C2.32 1.67 3.64 1.34 5 1 C5 2.65 5 4.3 5 6 C6.98 6 8.96 6 11 6 C10.67 7.65 10.34 9.3 10 11 C9.01 10.34 8.02 9.68 7 9 C7 8.34 7 7.68 7 7 C6.34 7 5.68 7 5 7 C4.67 7.66 4.34 8.32 4 9 C2.68 9 1.36 9 0 9 C0 8.34 0 7.68 0 7 C-0.99 6.67 -1.98 6.34 -3 6 C-3.6875 3.9375 -3.6875 3.9375 -4 2 C-2.68 1.34 -1.36 0.68 0 0 Z " fill="#F0ECF1" transform="translate(135,121)"/>
<path d="M0 0 C2.475 0.495 2.475 0.495 5 1 C7.9508438 10.08087051 10.29050642 19.94226421 6 29 C5.34 29.33 4.68 29.66 4 30 C4.33 29.01 4.66 28.02 5 27 C5.81411542 16.85844786 5.33057916 8.98583345 0 0 Z " fill="#FCF3CD" transform="translate(135,86)"/>
<path d="M0 0 C2.31 0.33 4.62 0.66 7 1 C6.525625 1.845625 6.05125 2.69125 5.5625 3.5625 C3.94278487 7.12587329 3.38743857 10.12561425 3 14 C3.66 14.33 4.32 14.66 5 15 C4.01 15.33 3.02 15.66 2 16 C1.67 13.69 1.34 11.38 1 9 C0.01 8.67 -0.98 8.34 -2 8 C-2 7.01 -2 6.02 -2 5 C-1.34 5 -0.68 5 0 5 C-0.33 4.01 -0.66 3.02 -1 2 C-0.67 1.34 -0.34 0.68 0 0 Z M-3 3 C-1 4 -1 4 -1 4 Z " fill="#F5F5E7" transform="translate(81,87)"/>
<path d="M0 0 C2 0 2 0 4.1875 1.625 C6 4 6 4 5.8125 7.1875 C5 10 5 10 4 11 C2.33382885 11.04063832 0.66611905 11.042721 -1 11 C-2.04449911 7.86650268 -1.93423645 7.01031744 -1 4 C-0.34 4 0.32 4 1 4 C0.67 2.68 0.34 1.36 0 0 Z " fill="#FDF44F" transform="translate(129,97)"/>
<path d="M0 0 C4.66666667 0.66666667 9.33333333 1.33333333 14 2 C14.33 1.34 14.66 0.68 15 0 C15 1.98 15 3.96 15 6 C11.60825599 7.13058134 11.1767509 6.90742601 8.0625 5.5625 C4.93447202 4.21847257 3.60334675 4 0 4 C0 2.68 0 1.36 0 0 Z " fill="#DEDEDD" transform="translate(93,150)"/>
<path d="M0 0 C1.32 0.33 2.64 0.66 4 1 C3.67 1.99 3.34 2.98 3 4 C3.99 4.33 4.98 4.66 6 5 C5.01 5 4.02 5 3 5 C3 5.99 3 6.98 3 8 C4.32 8.33 5.64 8.66 7 9 C3.7 9 0.4 9 -3 9 C-3 8.01 -3 7.02 -3 6 C-4.32 5.34 -5.64 4.68 -7 4 C-6.67 3.01 -6.34 2.02 -6 1 C-4.35 2.65 -2.7 4.3 -1 6 C-0.67 4.02 -0.34 2.04 0 0 Z " fill="#A0848F" transform="translate(148,127)"/>
<path d="M0 0 C2.25 0.125 2.25 0.125 5 1 C9 6.08108108 9 6.08108108 9 9 C7.02 9 5.04 9 3 9 C2.34 7.68 1.68 6.36 1 5 C0.34 5 -0.32 5 -1 5 C-0.67 3.35 -0.34 1.7 0 0 Z " fill="#EFE95A" transform="translate(121,91)"/>
<path d="M0 0 C1.65 0 3.3 0 5 0 C5.68707555 2.49064888 6 4.37886292 6 7 C7.43990623 9.17032476 7.43990623 9.17032476 9 11 C6.53199953 9.84826645 4.95216435 8.95216435 3 7 C2.67 7.66 2.34 8.32 2 9 C1.34 9 0.68 9 0 9 C0 6.03 0 3.06 0 0 Z " fill="#A1818F" transform="translate(124,127)"/>
<path d="M0 0 C0.99 0 1.98 0 3 0 C3 0.66 3 1.32 3 2 C4.0725 1.814375 5.145 1.62875 6.25 1.4375 C9.40391546 1.0695432 11.09818492 0.95534657 14 2 C14 2.99 14 3.98 14 5 C10.6888987 6.10370043 8.75251051 5.92673641 5.3125 5.5625 C4.31863281 5.46066406 3.32476562 5.35882813 2.30078125 5.25390625 C1.54152344 5.17011719 0.78226563 5.08632812 0 5 C0 3.35 0 1.7 0 0 Z " fill="#C5C5C5" transform="translate(63,150)"/>
<path d="M0 0 C1.34187818 0.6492959 2.67479497 1.31731862 4 2 C4.99 2 5.98 2 7 2 C7 4.97 7 7.94 7 11 C6.67 11 6.34 11 6 11 C5.67 8.69 5.34 6.38 5 4 C4.01 4 3.02 4 2 4 C3.32 6.97 4.64 9.94 6 13 C1.48325359 10.74162679 1.48325359 10.74162679 -0.25 7 C-0.58515625 6.29875 -0.9203125 5.5975 -1.265625 4.875 C-2 3 -2 3 -2 1 C-1.34 0.67 -0.68 0.34 0 0 Z " fill="#B7A3AC" transform="translate(53,125)"/>
<path d="M0 0 C4.21878192 -0.19622241 7.17010894 0.19769832 11 2 C9.68 2.33 8.36 2.66 7 3 C7.33 4.32 7.66 5.64 8 7 C5.36 6.34 2.72 5.68 0 5 C0 3.35 0 1.7 0 0 Z " fill="#822346" transform="translate(106,103)"/>
<path d="M0 0 C0.33 0 0.66 0 1 0 C0.67 3.63 0.34 7.26 0 11 C-0.99 10.67 -1.98 10.34 -3 10 C-3.33 10.99 -3.66 11.98 -4 13 C-4.66 13 -5.32 13 -6 13 C-6.33 13.66 -6.66 14.32 -7 15 C-6.68863537 8.92838975 -3.64625533 4.66140596 0 0 Z " fill="#F0EC85" transform="translate(91,83)"/>
<path d="M0 0 C0.66 0 1.32 0 2 0 C1.68955976 2.39611639 1.37671642 4.79187835 1.0625 7.1875 C0.97548828 7.86103516 0.88847656 8.53457031 0.79882812 9.22851562 C0.32174523 12.85081166 -0.23012035 16.42803585 -1 20 C-1.33 20 -1.66 20 -2 20 C-3.09750432 12.76240394 -3.36470959 6.72941919 0 0 Z " fill="#112641" transform="translate(95,83)"/>
<path d="M0 0 C0.33 0 0.66 0 1 0 C1.33 3.63 1.66 7.26 2 11 C0.68 10.34 -0.64 9.68 -2 9 C-2.12117188 9.71027344 -2.24234375 10.42054687 -2.3671875 11.15234375 C-2.53476563 12.07144531 -2.70234375 12.99054688 -2.875 13.9375 C-3.03742188 14.85402344 -3.19984375 15.77054688 -3.3671875 16.71484375 C-3.68042969 17.84599609 -3.68042969 17.84599609 -4 19 C-4.66 19.33 -5.32 19.66 -6 20 C-5.91306859 18.20741442 -5.80489496 16.41584856 -5.6875 14.625 C-5.60048828 13.12839844 -5.60048828 13.12839844 -5.51171875 11.6015625 C-5.34285156 10.74304688 -5.17398438 9.88453125 -5 9 C-4.01 8.34 -3.02 7.68 -2 7 C-0.7811879 3.44327821 -0.7811879 3.44327821 0 0 Z " fill="#2F4961" transform="translate(97,74)"/>
<path d="M0 0 C1.32 0.33 2.64 0.66 4 1 C3.34 1 2.68 1 2 1 C2 1.99 2 2.98 2 4 C3.32 4 4.64 4 6 4 C6.33 5.65 6.66 7.3 7 9 C4.69 9 2.38 9 0 9 C0 6.03 0 3.06 0 0 Z " fill="#B4A2A9" transform="translate(115,127)"/>
<path d="M0 0 C0.66 0 1.32 0 2 0 C2 2.97 2 5.94 2 9 C0.35 8.01 -1.3 7.02 -3 6 C-3.33 6.99 -3.66 7.98 -4 9 C-4.66 9 -5.32 9 -6 9 C-6 6.36 -6 3.72 -6 1 C-4.35 1.99 -2.7 2.98 -1 4 C-0.67 2.68 -0.34 1.36 0 0 Z " fill="#9A7788" transform="translate(96,127)"/>
<path d="M0 0 C2 3.875 2 3.875 2 5 C-2.62 5.33 -7.24 5.66 -12 6 C-6.17293233 1.33834586 -6.17293233 1.33834586 -2 1 C-1.34 1.33 -0.68 1.66 0 2 C0 1.34 0 0.68 0 0 Z " fill="#882C5E" transform="translate(81,105)"/>
<path d="M0 0 C0.99 0 1.98 0 3 0 C3 3.3 3 6.6 3 10 C1.02 10.33 -0.96 10.66 -3 11 C-2 9 -2 9 -1 8 C-0.76924918 6.65252916 -0.58846937 5.29622435 -0.4375 3.9375 C-0.2209375 1.9884375 -0.2209375 1.9884375 0 0 Z " fill="#B49BA5" transform="translate(101,127)"/>
<path d="M0 0 C1.67542976 0.28604898 3.34385343 0.61781233 5 1 C5 4 5 4 4 7 C2.35 6.67 0.7 6.34 -1 6 C-1.042721 4.33388095 -1.04063832 2.66617115 -1 1 C-0.67 0.67 -0.34 0.34 0 0 Z " fill="#1E2658" transform="translate(94,53)"/>
<path d="M0 0 C0.66 0 1.32 0 2 0 C2.66 1.32 3.32 2.64 4 4 C7.0745356 3.2236068 7.0745356 3.2236068 9 1 C9.66 4.3 10.32 7.6 11 11 C8 8 8 8 7 6 C6.01 6.66 5.02 7.32 4 8 C0 1.125 0 1.125 0 0 Z " fill="#856272" transform="translate(64,127)"/>
<path d="M0 0 C0.33 0 0.66 0 1 0 C1.33 2.64 1.66 5.28 2 8 C-1.75 11 -1.75 11 -4 11 C-4.33 9.02 -4.66 7.04 -5 5 C-4.01 5 -3.02 5 -2 5 C-1.34 3.35 -0.68 1.7 0 0 Z " fill="#EFE2E7" transform="translate(79,128)"/>
<path d="M0 0 C1.0725 0.33 2.145 0.66 3.25 1 C6.99731601 2.1717751 6.99731601 2.1717751 11 2 C11 2.66 11 3.32 11 4 C11.66 4.33 12.32 4.66 13 5 C11.20841511 5.02696365 9.41671527 5.04637917 7.625 5.0625 C6.62726563 5.07410156 5.62953125 5.08570312 4.6015625 5.09765625 C2 5 2 5 0 4 C0 2.68 0 1.36 0 0 Z " fill="#052160" transform="translate(118,109)"/>
<path d="M0 0 C4.95 0 9.9 0 15 0 C15.33 1.98 15.66 3.96 16 6 C12 4 12 4 10.25 2.9375 C6.89646338 1.54019308 3.60966975 1.36096697 0 1 C0 0.67 0 0.34 0 0 Z " fill="#E2E26C" transform="translate(120,108)"/>
<path d="M0 0 C2.42130331 3.63195496 2.21022785 5.38349348 2.125 9.6875 C2.10695313 10.86699219 2.08890625 12.04648438 2.0703125 13.26171875 C2.03550781 14.61716797 2.03550781 14.61716797 2 16 C-0.70705488 12.6615409 -1.51178906 10.29625631 -2 6 C-1.34 6 -0.68 6 0 6 C0 4.02 0 2.04 0 0 Z " fill="#353334" transform="translate(103,87)"/>
<path d="M0 0 C0.99 0 1.98 0 3 0 C3 0.66 3 1.32 3 2 C4.98 2 6.96 2 9 2 C8.01 2.33 7.02 2.66 6 3 C5.67 3.99 5.34 4.98 5 6 C5.66 6.66 6.32 7.32 7 8 C6.21625 7.79375 5.4325 7.5875 4.625 7.375 C3.325625 7.189375 3.325625 7.189375 2 7 C1.34 7.66 0.68 8.32 0 9 C0 6 0 3 0 0 Z " fill="#E5DFE1" transform="translate(129,125)"/>
<path d="M0 0 C0 2.64 0 5.28 0 8 C0.99 8 1.98 8 3 8 C3 8.66 3 9.32 3 10 C1.35 10.33 -0.3 10.66 -2 11 C-2 10.01 -2 9.02 -2 8 C-2.63514826 5.65789079 -3.2986716 3.32315031 -4 1 C-1 0 -1 0 0 0 Z " fill="#F9ECF3" transform="translate(59,128)"/>
<path d="M0 0 C0.66 0 1.32 0 2 0 C2 2.31 2 4.62 2 7 C-6.03501094 7.63019694 -6.03501094 7.63019694 -10.0625 5 C-10.701875 4.34 -11.34125 3.68 -12 3 C-8.37 3.33 -4.74 3.66 -1 4 C-0.67 2.68 -0.34 1.36 0 0 Z " fill="#F1E863" transform="translate(126,101)"/>
<path d="M0 0 C0.33 0 0.66 0 1 0 C0.67 3.3 0.34 6.6 0 10 C0.66 10.33 1.32 10.66 2 11 C1.01 12.98 0.02 14.96 -1 17 C-1.33 17 -1.66 17 -2 17 C-2.3690205 5.47835991 -2.3690205 5.47835991 0 0 Z " fill="#31426D" transform="translate(89,63)"/>
<path d="M0 0 C0.598125 0.309375 1.19625 0.61875 1.8125 0.9375 C4.08956772 2.10209704 4.08956772 2.10209704 7 3 C7 3.66 7 4.32 7 5 C0.07 4.505 0.07 4.505 -7 4 C-7 3.67 -7 3.34 -7 3 C-5.5459375 2.814375 -5.5459375 2.814375 -4.0625 2.625 C-2.5465625 2.315625 -2.5465625 2.315625 -1 2 C-0.67 1.34 -0.34 0.68 0 0 Z " fill="#361857" transform="translate(82,107)"/>
<path d="M0 0 C0.33 0.66 0.66 1.32 1 2 C0.0625 4.125 0.0625 4.125 -1 6 C-3 5 -5 4 -7 3 C-7 2.34 -7 1.68 -7 1 C-4.53721199 -0.231394 -2.7204945 -0.07159196 0 0 Z " fill="#062062" transform="translate(89,104)"/>
<path d="M0 0 C1.231394 2.46278801 1.07159196 4.2795055 1 7 C-0.65 7.66 -2.3 8.32 -4 9 C-7 4.25 -7 4.25 -7 2 C-6.34 2 -5.68 2 -5 2 C-4.67 3.32 -4.34 4.64 -4 6 C-3.34 6 -2.68 6 -2 6 C-1.855625 5.195625 -1.71125 4.39125 -1.5625 3.5625 C-1 1 -1 1 0 0 Z " fill="#A3959D" transform="translate(113,126)"/>
<path d="M0 0 C0.33 0 0.66 0 1 0 C1 4.95 1 9.9 1 15 C0.01 15.33 -0.98 15.66 -2 16 C-1.67 14.35 -1.34 12.7 -1 11 C-1.66 10.67 -2.32 10.34 -3 10 C-2.34 9.01 -1.68 8.02 -1 7 C-0.60612212 4.67612053 -0.26513915 2.34206251 0 0 Z " fill="#684958" transform="translate(105,94)"/>
<path d="M0 0 C0.66 0.66 1.32 1.32 2 2 C1.34 3.65 0.68 5.3 0 7 C-0.66 7 -1.32 7 -2 7 C-2.33 5.68 -2.66 4.36 -3 3 C-3.99 3.33 -4.98 3.66 -6 4 C-5.67 3.01 -5.34 2.02 -5 1 C-2.625 0.375 -2.625 0.375 0 0 Z " fill="#EFE9EE" transform="translate(111,125)"/>
<path d="M0 0 C6.24723226 -0.82200425 10.71317837 2.07448606 16 5 C14 6 14 6 11.375 5.25 C7.57899946 3.84407387 3.78488445 2.43564583 0 1 C0 0.67 0 0.34 0 0 Z " fill="#EBCC3F" transform="translate(114,76)"/>
<path d="M0 0 C5.71658336 -0.45732667 8.48649253 0.47726246 13 4 C12.01 4.495 12.01 4.495 11 5 C10.01 4.67 9.02 4.34 8 4 C8 3.34 8 2.68 8 2 C6.02 2.33 4.04 2.66 2 3 C1.34 2.01 0.68 1.02 0 0 Z " fill="#364645" transform="translate(121,109)"/>
<path d="M0 0 C4.95 0.99 4.95 0.99 10 2 C10 2.66 10 3.32 10 4 C6.67465243 5.10844919 4.37817425 4.84454356 1 4 C0.67 2.68 0.34 1.36 0 0 Z " fill="#CACAC9" transform="translate(93,150)"/>
<path d="M0 0 C0.556875 0.144375 1.11375 0.28875 1.6875 0.4375 C4.11384195 1.02769128 6.54906345 1.523429 9 2 C9 2.99 9 3.98 9 5 C4.44615385 5.36923077 4.44615385 5.36923077 2.1875 3.5 C1.795625 3.005 1.40375 2.51 1 2 C1 2.66 1 3.32 1 4 C0.34 4 -0.32 4 -1 4 C-0.67 2.68 -0.34 1.36 0 0 Z " fill="#CBCBCB" transform="translate(116,150)"/>
<path d="M0 0 C2.25 -0.3125 2.25 -0.3125 5 0 C7.3125 2.5 7.3125 2.5 9 5 C4.545 4.01 4.545 4.01 0 3 C0 2.01 0 1.02 0 0 Z " fill="#192346" transform="translate(113,106)"/>
<path d="M0 0 C2.97 0.495 2.97 0.495 6 1 C3.31158141 3.25245881 1.35358125 4.88213958 -2 6 C-2.33 5.01 -2.66 4.02 -3 3 C-2.01 2.67 -1.02 2.34 0 2 C0 1.34 0 0.68 0 0 Z " fill="#F5E6EE" transform="translate(72,104)"/>
<path d="M0 0 C3.9492568 0.55105909 7.34920174 1.38935371 11 3 C11 4.65 11 6.3 11 8 C10.113125 7.21625 9.22625 6.4325 8.3125 5.625 C5.69279481 3.42843009 3.28284399 2.06209659 0 1 C0 0.67 0 0.34 0 0 Z " fill="#FBEDC1" transform="translate(124,78)"/>
<path d="M0 0 C0.66 0.66 1.32 1.32 2 2 C2.66 1.34 3.32 0.68 4 0 C5 2 5 2 4.0625 5.125 C3.711875 6.07375 3.36125 7.0225 3 8 C2.01 7.34 1.02 6.68 0 6 C-0.1875 2.875 -0.1875 2.875 0 0 Z " fill="#E3E8EE" transform="translate(98,57)"/>
<path d="M0 0 C0.33 0.66 0.66 1.32 1 2 C1.99 2.33 2.98 2.66 4 3 C3.34 3 2.68 3 2 3 C1.67 3.99 1.34 4.98 1 6 C0.34 5.34 -0.32 4.68 -1 4 C-1 4.66 -1 5.32 -1 6 C-2.32 6 -3.64 6 -5 6 C-5 5.01 -5 4.02 -5 3 C-3.35 2.67 -1.7 2.34 0 2 C0 1.34 0 0.68 0 0 Z " fill="#F4EFF0" transform="translate(156,129)"/>
<path d="M0 0 C2.97 0.495 2.97 0.495 6 1 C6 1.99 6 2.98 6 4 C2.52176885 5.15941038 0.54104422 4.70820884 -3 4 C-2.67 3.34 -2.34 2.68 -2 2 C-1.01 2.33 -0.02 2.66 1 3 C0.67 2.01 0.34 1.02 0 0 Z " fill="#D6D6D6" transform="translate(71,151)"/>
<path d="M0 0 C0.99 0 1.98 0 3 0 C3 3.63 3 7.26 3 11 C2.67 11 2.34 11 2 11 C2 9.02 2 7.04 2 5 C1.34 5 0.68 5 0 5 C0 3.35 0 1.7 0 0 Z " fill="#EAE2E7" transform="translate(121,125)"/>
<path d="M0 0 C3.3 0 6.6 0 10 0 C9.01 1.485 9.01 1.485 8 3 C5.5625 3.375 5.5625 3.375 3 3 C2.01 2.01 1.02 1.02 0 0 Z " fill="#22205D" transform="translate(67,111)"/>
<path d="M0 0 C2.31 0 4.62 0 7 0 C7 0.99 7 1.98 7 3 C5.35 2.67 3.7 2.34 2 2 C1.67 2.99 1.34 3.98 1 5 C0.67 3.35 0.34 1.7 0 0 Z " fill="#0F1E50" transform="translate(97,105)"/>
<path d="M0 0 C0.33 0 0.66 0 1 0 C1 2.64 1 5.28 1 8 C-0.98 8 -2.96 8 -5 8 C-5 7.01 -5 6.02 -5 5 C-3.68 5 -2.36 5 -1 5 C-0.67 3.35 -0.34 1.7 0 0 Z " fill="#DEDC75" transform="translate(91,94)"/>
<path d="M0 0 C2.4375 0.8125 2.4375 0.8125 5 2 C5.33 2.99 5.66 3.98 6 5 C4.02 5 2.04 5 0 5 C0 3.35 0 1.7 0 0 Z " fill="#ACAB3D" transform="translate(124,95)"/>
<path d="M0 0 C0.66 0.33 1.32 0.66 2 1 C2.26218749 4.14624993 2.24754367 5.61837017 0.5 8.3125 C-0.2425 9.1478125 -0.2425 9.1478125 -1 10 C-1.125 2.25 -1.125 2.25 0 0 Z " fill="#B4BB80" transform="translate(97,84)"/>
<path d="M0 0 C1.32 0 2.64 0 4 0 C5.60337726 2.25660504 6.76582217 4.53164435 8 7 C5.03 6.505 5.03 6.505 2 6 C2 4.68 2 3.36 2 2 C1.34 1.34 0.68 0.68 0 0 Z " fill="#2B386A" transform="translate(94,60)"/>
<path d="M0 0 C1.65 0 3.3 0 5 0 C5.33 0.99 5.66 1.98 6 3 C4.68 3 3.36 3 2 3 C1.67 3.66 1.34 4.32 1 5 C0.67 3.35 0.34 1.7 0 0 Z " fill="#D6D6D6" transform="translate(84,152)"/>
<path d="M0 0 C0 1.98 0 3.96 0 6 C-1.65 5.01 -3.3 4.02 -5 3 C-2.25 0 -2.25 0 0 0 Z " fill="#F1E9EE" transform="translate(96,126)"/>
<path d="M0 0 C1.5 1.25 1.5 1.25 3 3 C3 4.32 3 5.64 3 7 C1.68 6.67 0.36 6.34 -1 6 C-0.67 4.02 -0.34 2.04 0 0 Z " fill="#FDF24D" transform="translate(98,95)"/>
<path d="M0 0 C0.66 0 1.32 0 2 0 C2 2.97 2 5.94 2 9 C1.01 8.01 0.02 7.02 -1 6 C-0.6875 2.8125 -0.6875 2.8125 0 0 Z " fill="#886977" transform="translate(96,127)"/>
</svg>
